PathFileType	4	(X/Y/Z)	C:/Users/beibeiliu/ov580/test_trc\sequence.11_training_dense_left.trc
DataRate	CameraRate	NumFrames	NumMarkers	Units	OrigDataRate	OrigDataStartFrame	OrigNumFrames
120	120	18	19	mm	120	26	100
Frame#	Time	ThumbCMC			ThumbMCP			ThumbIP			ThumbTip			IndexMCP			IndexPIP			IndexTip			MiddleMCP			MiddlePIP			MiddleTip			RingMCP			RingPIP			RingTip			PinkyMCP			PinkyPIP			PinkyTip			BackHand1			BackHand2			BackHand3	
		X0	Y0	Z0	X1	Y1	Z1	X2	Y2	Z2	X3	Y3	Z3	X4	Y4	Z4	X5	Y5	Z5	X6	Y6	Z6	X7	Y7	Z7	X8	Y8	Z8	X9	Y9	Z9	X10	Y10	Z10	X11	Y11	Z11	X12	Y12	Z12	X13	Y13	Z13	X14	Y14	Z14	X15	Y15	Z15	X16	Y16	Z16	X17	Y17	Z17	X18	Y18	Z18	
25	0.208333	-215.066	30.6406	45.8338	-198.154	58.2052	31.0115	-171.834	58.7939	20.0292	-148.402	50.2673	21.1651	-179.796	37.8363	-14.8757	-168.403	51.1065	-29.8712	-156.081	64.2911	-43.3413	-156.684	29.5187	-7.89381	-139.082	45.4959	-16.4437	-116.959	61.4484	-17.3677	-143.478	27.3621	17.2055	-144.368	48.431	38.3469	-166.454	39.9861	55.2226	-142.914	20.1675	32.4413	-149.558	36.129	49.3207	-172.931	28.457	54.9549	-181.449	-10.5037	30.7132	-199.877	-15.6707	45.2566	-207.909	2.58898	30.3425	
26	0.216667	-216.968	33.2464	42.8153	-202.489	59.8788	29.1686	-179.254	62.1596	19.8891	-156.631	57.2838	20.9117	-189.566	44.5802	-13.1455	-176.262	55.2905	-29.4447	-168.418	70.0412	-43.3336	-157.894	39.648	-8.49829	-148.324	59.248	-16.919	-132.016	79.2879	-20.5657	-149.328	43.0774	12.9613	-152.427	61.5862	33.9864	-172.935	49.7789	50.8668	-141.177	30.4502	30.2943	-153.802	47.8352	44.9273	-173.596	37.7485	54.3399	-172.377	-1.2118	26.4107	-189.732	-15.9474	48.3821	-204.32	5.56903	28.5519	
27	0.225	-213.864	31.1783	43.8845	-206.46	62.2161	31.2227	-180.965	69.0257	16.6967	-155.777	67.58	17.0725	-187.216	45.8763	-12.3399	-182.037	62.969	-31.7424	-170.706	75.1602	-44.678	-162.846	49.4524	-10.223	-148.12	67.8495	-16.5676	-137.538	95.0937	-19.3827	-148.01	47.0782	13.9169	-154.39	66.2146	36.1703	-170.089	54.2022	51.5863	-139.395	37.7834	29.5393	-151.215	53.6224	42.7622	-172.023	39.7548	52.2299	-174.029	4.76728	26.4364	-184.56	-10.7293	48.0817	-199.284	7.63273	26.4414	
28	0.233333	-214.79	35.8897	40.7834	-201.97	59.7923	31.427	-178.712	66.5677	19.3512	-155.769	64.5476	17.9951	-183.651	47.5332	-14.9675	-174.648	59.986	-28.9495	-162.92	75.5385	-48.0082	-162.073	45.199	-7.77162	-144.996	67.6413	-16.3183	-130.557	85.674	-15.6296	-146.634	47.5796	15.1179	-153.15	65.3843	34.9089	-170.409	52.9896	49.4876	-140.865	35.5045	28.1855	-150.363	50.9053	46.8309	-171.767	37.6329	53.1904	-169.89	2.36213	24.3112	-189.087	-10.9288	47.7688	-201.585	6.24329	27.4046	
29	0.241667	-212.183	33.9041	39.7594	-192.896	52.9816	22.9439	-170.789	59.8313	11.0272	-145.154	51.7745	12.2899	-176.11	30.7328	-16.2867	-165.672	41.6864	-34.2039	-153.376	53.1295	-53.4145	-150.116	24.0601	-9.54073	-132.772	40.5061	-18.6199	-113.014	60.9039	-23.5265	-141.974	29.1276	13.7224	-143.86	49.984	30.109	-163.41	43.663	47.3642	-139.547	19.7041	28.3589	-145.869	40.3809	42.5768	-169.839	32.1502	47.4306	-178.453	-6.13092	29.2009	-193.734	-11.9947	48.9036	-204.669	2.72543	27.593	
30	0.25	-206.343	23.5577	29.4747	-186.025	39.3135	7.94587	-164.979	34.1011	3.22749	-141.411	21.7428	4.8339	-177.774	3.30982	-26.3332	-164.379	2.22864	-39.0598	-147.623	3.98867	-61.8044	-154.434	-10.3029	-9.52286	-131.218	-5.14547	-24.4008	-109.622	3.90482	-32.8881	-139.997	0.394326	8.67197	-136.741	25.353	21.9758	-161.306	29.6859	33.3147	-138.473	-4.21818	27.3029	-139.072	17.6603	33.7826	-167.74	21.7782	41.8786	-180.773	-25.2024	32.0732	-199.992	-19.6853	54.4117	-206.827	-8.93891	27.649	
31	0.258333	-205.003	24.8301	26.4433	-180.99	31.4368	0.929857	-163.755	18.2436	-5.17757	-141.415	2.32959	-6.36413	-186.354	-15.7985	-25.3526	-178.337	-18.7503	-43.0223	-166.572	-25.41	-64.0262	-166.952	-31.6591	-14.8719	-148.086	-35.8197	-29.5387	-127.236	-39.0888	-45.0062	-150.003	-23.9222	8.08449	-136.951	-1.85143	8.56199	-154.374	15.3638	24.9939	-147.589	-27.1675	26.7875	-138.143	-1.58654	27.3358	-157.194	11.4357	33.2074	-193.477	-28.8686	35.0553	-207.842	-14.1702	56.2982	-213.485	-4.6922	25.9203	
32	0.266667	-197.897	33.5973	25.781	-177.221	32.0734	1.17777	-162.226	14.5793	-10.785	-151.455	-8.19373	-8.5844	-202.078	-5.97517	-21.7432	-196.324	-18.6971	-42.5506	-191.85	-30.0609	-62.24	-189.149	-31.7882	-11.7028	-178.166	-45.1912	-30.1725	-162.708	-55.7887	-48.8048	-168.822	-30.9616	1.36042	-145.291	-18.4756	0.881862	-150.719	3.86484	17.683	-161.202	-35.5803	22.636	-146.864	-15.6424	16.9414	-159.418	5.03574	28.5527	-204.532	-21.4302	35.9792	-211.149	-1.88885	58.1493	-214.239	5.27554	32.9301	
33	0.275	-190.021	47.3055	28.1349	-174.034	36.9894	-0.580018	-169.214	12.6858	-14.5795	-165.711	-7.52681	-13.7194	-214.339	9.0209	-18.6053	-218.208	-0.332546	-39.863	-220.277	-8.58891	-62.1429	-213.532	-16.2247	-15.0117	-212.531	-31.1773	-31.9918	-207.893	-45.4712	-51.3217	-189.039	-24.32	-4.78212	-164.783	-21.0735	-7.08638	-158.737	-0.368159	13.2105	-179.946	-33.6473	13.6566	-162.012	-19.1218	10.7081	-159.396	0.845501	25.4013	-215.413	-2.61393	35.0955	-213.729	10.4078	57.2228	-217.391	23.2421	34.9154	
34	0.283333	-181.314	48.091	32.4537	-169.16	38.3791	1.11236	-174.542	18.58	-13.3403	-182.07	-5.59677	-16.0398	-219.518	31.6962	-15.2362	-230.04	24.631	-40.2647	-236.189	21.1248	-56.4101	-230.683	5.20839	-14.384	-237.279	-8.68381	-33.3074	-241.659	-22.0321	-55.7273	-208.919	-14.5532	-5.81174	-181.024	-14.7407	-13.4136	-169.466	-1.79362	9.80183	-203.413	-24.5584	12.8143	-177.016	-18.3687	6.3627	-171.378	1.31318	21.4693	-221.303	11.5845	36.6603	-212.449	20.6678	63.3787	-214.03	35.2698	39.1249	
35	0.291667	-170.69	43.3747	34.8332	-169.396	32.4658	1.04146	-179.702	17.8103	-12.4192	-193.525	-2.48794	-17.0591	-215.47	47.1769	-14.3659	-224.642	48.6573	-39.1733	-232.709	46.8467	-54.9645	-236.541	21.0065	-11.8969	-245.613	17.013	-33.2192	-257.134	10.2396	-53.7759	-220.146	-3.75077	-7.58198	-193.26	-12.624	-14.661	-179.728	-3.77519	5.64959	-215.168	-17.5349	5.29475	-189.616	-16.5497	4.77602	-180.793	-3.8587	21.6636	-225.945	20.3508	36.3984	-214.122	24.7202	63.1919	-205.674	41.3398	42.2644	
36	0.3	-164.159	34.1321	35.0881	-166.525	24.3544	2.59113	-180.124	14.5606	-12.673	-200.331	-1.03327	-24.0018	-206.297	50.218	-14.7586	-212.301	54.5053	-33.9214	-220.358	57.8846	-55.4193	-229.274	37.133	-11.4429	-239.299	37.617	-31.5725	-255.94	32.5924	-50.8303	-224.637	7.68106	-7.32121	-205.853	-9.21344	-16.1261	-186.68	-3.776	8.782	-222.67	-6.78628	3.80984	-201.14	-13.4992	3.86333	-188.982	-3.40909	24.9245	-223.347	27.3967	38.7547	-211.648	30.0799	61.4073	-198.222	43.037	42.0388	
37	0.308333	-162.554	23.4696	33.5009	-165.254	14.0722	1.46223	-179.533	7.54554	-13.109	-203.139	-0.523779	-24.5378	-193.584	50.586	-21.14	-196.128	55.1288	-40.997	-198.133	58.856	-62.6406	-219.963	42.8018	-12.6101	-230.718	45.7013	-34.7988	-245.102	46.1477	-54.5394	-225.514	14.2685	-8.66205	-207.403	-8.647	-14.7475	-194.718	-9.58874	12.5269	-231.855	3.93637	6.47669	-212.37	-14.2083	5.86753	-194.103	-5.92563	20.1401	-213.162	36.8739	36.8409	-208.99	34.1231	61.6945	-186.518	45.052	37.7537	
38	0.316667	-161.708	16.2369	34.4879	-162.704	-0.448592	3.07643	-181.173	-3.18174	-14.3777	-203.849	-5.39791	-18.0645	-181.219	39.2527	-21.8739	-180.787	39.7749	-47.3312	-187.618	40.9511	-68.3339	-206.941	41.1085	-20.2906	-220.644	41.0698	-41.4414	-235.639	42.5258	-63.6274	-220.114	15.1557	-11.8944	-213.643	-11.1992	-11.6569	-199.421	-13.7044	12.4592	-229.637	8.02638	5.09178	-219.066	-12.9011	9.21574	-198.373	-6.9112	29.1094	-209.464	40.1633	33.1549	-197.484	40.7793	55.9092	-177.402	43.5415	34.8355	
39	0.325	-160.391	11.82	36.7598	-165.02	-7.84756	12.7196	-184.814	-12.1883	-8.362	-211.089	-10.3183	-14.3494	-176.093	23.2406	-29.3629	-176.163	18.639	-45.8624	-179.524	13.0821	-71.0473	-205.95	31.4948	-25.5499	-214.843	26.9044	-46.3819	-226.302	25.9913	-63.4919	-216.664	11.7318	-10.1384	-216.237	-15.5041	-3.15099	-203.041	-16.2112	23.1075	-229.533	8.17359	6.40815	-220.307	-11.8619	14.8173	-201.288	-6.0486	32.4825	-199.262	44.3719	27.0346	-193.531	45.6655	52.2409	-169.735	39.4305	32.9165	
40	0.333333	-154.043	6.68887	38.451	-163.922	-13.5881	16.571	-181.409	-19.9372	-1.49104	-206.492	-19.4819	-9.51738	-171.458	12.0848	-27.6398	-171.27	0.847449	-44.6576	-176.558	-7.72545	-64.1216	-198.949	21.0798	-25.6871	-207.143	13.6995	-44.6849	-215.521	5.34185	-67.1121	-215.688	6.03833	-6.91179	-214.64	-20.1105	2.17784	-199.111	-18.0286	28.7123	-224.269	9.76579	7.21061	-220.75	-12.3299	19.377	-199.225	-10.5172	34.9361	-199.141	43.5239	21.8772	-188.296	48.7127	49.0177	-168.086	39.7501	31.0868	
41	0.341667	-150.363	9.89627	44.8143	-157.521	-15.0317	29.2692	-175.319	-27.4065	6.95067	-198.394	-25.8002	-0.349324	-163.087	2.39366	-18.8263	-163.509	-10.5223	-35.1205	-168.537	-25.4747	-52.7692	-193.404	8.75331	-23.9193	-199.105	-3.50321	-41.6686	-211.616	-16.2718	-59.8505	-210.791	-2.56874	-2.5417	-205.548	-27.3182	9.92928	-192.833	-22.6537	34.798	-223.227	0.0561232	11.7286	-213.181	-18.2101	25.8757	-194.621	-10.0584	45.0022	-194.989	38.8465	21.6816	-185.943	47.7314	46.5098	-164.438	37.9483	32.9172	
42	0.35	-149.943	15.3396	49.3535	-144.568	-13.5915	37.1483	-162.865	-26.1075	19.2738	-181.017	-33.5987	12.2741	-150.783	-3.98354	-10.035	-149.377	-24.3827	-25.6023	-147.928	-44.7553	-39.3896	-182.13	-8.98679	-17.3121	-186.131	-25.992	-30.9925	-187.714	-48.4664	-46.8431	-198.669	-16.622	5.14308	-193.938	-37.9603	24.5724	-181.587	-26.5396	46.1407	-212.739	-14.2935	18.0597	-199.075	-27.7848	34.5384	-183.382	-13.8878	49.5055	-194.075	31.8777	23.7136	-191.591	45.4647	46.3212	-167.151	38.0495	34.1847	
